<svg width="18" height="18" viewBox="0 0 18 18" fill="none" xmlns="http://www.w3.org/2000/svg">
<path d="M7.875 1.125C7.875 0.50368 8.37868 0 9 0C9.62132 0 10.125 0.50368 10.125 1.125V16.875C10.125 17.4963 9.62132 18 9 18C8.37868 18 7.875 17.4963 7.875 16.875V1.125Z" fill="#274DB2"/>
<path d="M1.125 10.125C0.50368 10.125 2.71588e-08 9.62132 0 9C-2.71588e-08 8.37868 0.50368 7.875 1.125 7.875L16.875 7.875C17.4963 7.875 18 8.37868 18 9C18 9.62132 17.4963 10.125 16.875 10.125L1.125 10.125Z" fill="#274DB2"/>
</svg>
