<svg width="24" height="24" viewBox="0 0 24 24" fill="none" xmlns="http://www.w3.org/2000/svg">
<path d="M19 9.77778V15.3333C19 17.1014 18.2625 18.7971 16.9497 20.0474C15.637 21.2976 13.8565 22 12 22C10.1435 22 8.36301 21.2976 7.05025 20.0474C5.7375 18.7971 5 17.1014 5 15.3333V6.44444C5 5.2657 5.49167 4.13524 6.36683 3.30175C7.242 2.46825 8.42899 2 9.66667 2V2C10.9043 2 12.0913 2.46825 12.9665 3.30175C13.8417 4.13524 14.3333 5.2657 14.3333 6.44444V15.3333C14.3333 15.9227 14.0875 16.4879 13.6499 16.9047C13.2123 17.3214 12.6188 17.5556 12 17.5556C11.3812 17.5556 10.7877 17.3214 10.3501 16.9047C9.9125 16.4879 9.66667 15.9227 9.66667 15.3333V6.44444" stroke="#7E8CA0" stroke-width="1.5" stroke-linecap="round" stroke-linejoin="round"/>
</svg>
