<svg width="23" height="24" viewBox="0 0 23 24" fill="none" xmlns="http://www.w3.org/2000/svg">
<path fill-rule="evenodd" clip-rule="evenodd" d="M6.70833 12C6.70833 10.8954 5.85021 10 4.79167 10C3.73312 10 2.875 10.8954 2.875 12C2.875 13.1046 3.73312 14 4.79167 14C5.85021 14 6.70833 13.1046 6.70833 12Z" fill="#7E8CA0"/>
<path fill-rule="evenodd" clip-rule="evenodd" d="M13.4167 12C13.4167 10.8954 12.5585 10 11.5 10C10.4415 10 9.58333 10.8954 9.58333 12C9.58333 13.1046 10.4415 14 11.5 14C12.5585 14 13.4167 13.1046 13.4167 12Z" fill="#7E8CA0"/>
<path fill-rule="evenodd" clip-rule="evenodd" d="M20.125 12C20.125 10.8954 19.2669 10 18.2083 10C17.1498 10 16.2917 10.8954 16.2917 12C16.2917 13.1046 17.1498 14 18.2083 14C19.2669 14 20.125 13.1046 20.125 12Z" fill="#7E8CA0"/>
</svg>
