<svg width="29" height="29" viewBox="0 0 29 29" fill="none" xmlns="http://www.w3.org/2000/svg">
<path d="M18.125 9.66666H18.1371" stroke="#64748B" stroke-width="2" stroke-linecap="round" stroke-linejoin="round"/>
<path d="M20.5416 4.83333H8.45825C6.45622 4.83333 4.83325 6.4563 4.83325 8.45833V20.5417C4.83325 22.5437 6.45622 24.1667 8.45825 24.1667H20.5416C22.5436 24.1667 24.1666 22.5437 24.1666 20.5417V8.45833C24.1666 6.4563 22.5436 4.83333 20.5416 4.83333Z" stroke="#64748B" stroke-width="1.5" stroke-linecap="round" stroke-linejoin="round"/>
<path d="M4.83325 18.125L9.66659 13.2917C10.2177 12.7614 10.8428 12.4822 11.4791 12.4822C12.1154 12.4822 12.7405 12.7614 13.2916 13.2917L19.3333 19.3333" stroke="#64748B" stroke-width="1.5" stroke-linecap="round" stroke-linejoin="round"/>
<path d="M16.9165 16.9167L18.1248 15.7083C18.6759 15.1781 19.301 14.8989 19.9373 14.8989C20.5737 14.8989 21.1988 15.1781 21.7498 15.7083L24.1665 18.125" stroke="#64748B" stroke-width="1.5" stroke-linecap="round" stroke-linejoin="round"/>
</svg>
