<svg width="24" height="24" viewBox="0 0 24 24" fill="none" xmlns="http://www.w3.org/2000/svg">
    <path
        d="M17 8C17 8.98891 16.7068 9.95561 16.1573 10.7779C15.6079 11.6001 14.827 12.241 13.9134 12.6194C12.9998 12.9978 11.9945 13.0969 11.0245 12.9039C10.0546 12.711 9.16373 12.2348 8.46447 11.5355C7.7652 10.8363 7.289 9.94536 7.09607 8.97545C6.90315 8.00555 7.00216 7.00021 7.3806 6.08658C7.75904 5.17295 8.3999 4.39206 9.22215 3.84265C10.0444 3.29324 11.0111 3 12 3C13.3261 3 14.5979 3.52678 15.5355 4.46447C16.4732 5.40215 17 6.67392 17 8ZM13 13H11C9.14348 13 7.36301 13.7375 6.05025 15.0503C4.7375 16.363 4 18.1435 4 20V20C4 20.2652 4.10536 20.5196 4.29289 20.7071C4.48043 20.8946 4.73478 21 5 21H19C19.2652 21 19.5196 20.8946 19.7071 20.7071C19.8946 20.5196 20 20.2652 20 20C20 18.1435 19.2625 16.363 17.9497 15.0503C16.637 13.7375 14.8565 13 13 13V13Z"
        stroke="inherit" stroke-width="1.5" stroke-linecap="round" stroke-linejoin="round" />
</svg>